:SAMPLES-PER-SECOND 30
:FULLY-SPECIFIED
:DEGREES
541
root  56.2731 38.5108 -1.92687 -3.84033 -7.70842 2.5661
RightUpLeg  -9.06421 -21.1897 -10.2498
RightLeg  47.3579 -1.68089 -2.33298
RightFoot  -5.61456 -0.511334 9.43733
RightToes  1.45519e-009 0 -3.6325e-017
Spine  11.6725 1.59381 -3.17981
Spine1  5.41369 2.57187 -6.2745
HEad  -9.70498 26.0793 -12.6582
LeftShoulder1  -0.935459 6.0555 -30.4835
LeftArm  -11.325 6.92116 -33.848
LeftForeArm  22.0217 -32.1593 -5.82933
LeftHand  -0.00704029 8.8976 1.30595
RightShoulder  -0.972395 -6.23624 29.0345
RightArm  15.1121 -5.17906 42.5282
RightForeArm  11.7862 36.8519 7.69811
RightHand  -0.118315 3.66677 -1.76561
LeftUpLeg  -9.97351 8.8756 -5.48113
LeftLeg  16.5948 17.1731 1.44908
LeftFoot  -5.25936 -0.374508 7.62644
LeftToes  -2.53752e-010 -2.07034e-011 -2.70101e-011
542
root  57.3207 38.5025 -1.95309 -4.02722 -12.2556 2.80548
RightUpLeg  -7.71918 -23.5737 -8.16289
RightLeg  51.0036 -2.2658 -3.32207
RightFoot  -6.2729 -0.490719 10.1245
RightToes  1.45519e-009 0 -3.6325e-017
Spine  9.95554 1.86599 -2.811
Spine1  6.09589 3.15694 -6.88995
HEad  -10.0268 28.0416 -13.3891
LeftShoulder1  -0.970288 6.19028 -29.9269
LeftArm  -13.9837 8.08753 -32.7352
LeftForeArm  21.1184 -33.5973 -6.25037
LeftHand  0.0159059 9.07648 1.95688
RightShoulder  -0.926579 -6.09274 29.2065
RightArm  16.0495 -5.18906 42.7386
RightForeArm  12.5072 37.0381 7.70801
RightHand  -0.0744499 3.5263 -1.21761
LeftUpLeg  -9.51999 7.38724 -6.58275
LeftLeg  15.4512 23.2924 1.97624
LeftFoot  -5.17897 -0.434429 8.63891
LeftToes  -2.53752e-010 -2.07034e-011 -2.70101e-011
543
root  58.4374 38.3788 -1.99538 -4.29889 -16.7527 3.39632
RightUpLeg  -5.26987 -27.6447 -7.9666
RightLeg  52.9738 -0.332163 -0.856317
RightFoot  -6.8421 -0.489933 11.258
RightToes  1.45519e-009 0 -3.6325e-017
Spine  8.31175 2.14967 -2.79624
Spine1  6.74616 3.57558 -7.17383
HEad  -9.68826 29.0749 -12.9644
LeftShoulder1  -1.06898 6.44908 -30.1063
LeftArm  -14.7557 9.6609 -31.1862
LeftForeArm  19.6026 -35.3163 -6.78699
LeftHand  0.0124479 9.11735 1.80849
RightShoulder  -0.869862 -5.96922 28.6916
RightArm  17.1737 -4.56097 43.368
RightForeArm  11.3303 36.3981 7.59536
RightHand  -0.100319 4.11387 -1.49701
LeftUpLeg  -9.83157 5.70481 -8.24633
LeftLeg  15.2281 29.4442 2.99062
LeftFoot  -5.22238 -0.486102 9.65491
LeftToes  -2.53752e-010 -2.07034e-011 -2.70101e-011
544
root  59.5758 38.2563 -2.0226 -4.59583 -21.0803 3.95001
RightUpLeg  -2.27903 -29.3179 -7.65616
RightLeg  52.7096 2.02954 2.45676
RightFoot  -5.78783 -0.647322 12.4212
RightToes  1.45519e-009 0 -3.6325e-017
Spine  7.11741 2.27105 -1.83368
Spine1  6.70063 4.05752 -8.28449
HEad  -9.27537 29.2922 -11.9415
LeftShoulder1  -1.08046 6.48282 -30.0792
LeftArm  -16.5587 10.9934 -30.5146
LeftForeArm  21.0036 -35.5657 -6.77359
LeftHand  -0.0244118 8.41262 0.81091
RightShoulder  -0.926742 -6.12354 28.8059
RightArm  17.6346 -4.21063 43.4032
RightForeArm  11.9099 36.4645 7.57909
RightHand  -0.0760214 3.7089 -1.22819
LeftUpLeg  -10.1722 4.11145 -9.92147
LeftLeg  14.481 35.3376 3.81484
LeftFoot  -4.95623 -0.579512 10.8899
LeftToes  -2.53752e-010 -2.07034e-011 -2.70101e-011
545
root  60.688 38.1022 -2.09365 -5.10724 -25.0978 4.4633
RightUpLeg  1.51883 -29.6046 -7.32896
RightLeg  49.9345 4.90112 5.8547
RightFoot  -3.80103 -1.11321 16.2574
RightToes  1.45519e-009 0 -3.6325e-017
Spine  6.28089 2.30978 -1.44688
Spine1  6.68124 4.20613 -8.56659
HEad  -9.02247 27.9306 -11.5308
LeftShoulder1  -1.10003 6.5339 -30.1142
LeftArm  -16.5242 13.0576 -29.6567
LeftForeArm  20.5122 -37.2894 -7.28107
LeftHand  -0.0363172 8.86787 0.359916
RightShoulder  -0.949786 -6.20016 28.6534
RightArm  18.0356 -3.52232 43.6763
RightForeArm  12.4439 36.6451 7.59826
RightHand  -0.0736173 3.7279 -1.19858
LeftUpLeg  -10.513 3.48227 -11.1921
LeftLeg  13.5704 40.0259 3.81363
LeftFoot  -4.73282 -0.685311 12.3199
LeftToes  -2.53752e-010 -2.07034e-011 -2.70101e-011
546
root  61.845 37.9489 -2.2505 -5.62952 -29.2291 4.31255
RightUpLeg  5.45047 -28.2332 -6.2651
RightLeg  44.913 6.65873 6.80284
RightFoot  -3.50504 -1.40046 19.9318
RightToes  1.45519e-009 0 -3.6325e-017
Spine  6.50376 2.43187 -0.404023
Spine1  6.32763 4.35111 -8.4024
HEad  -9.42063 25.459 -11.5093
LeftShoulder1  -1.11694 6.52868 -30.7369
LeftArm  -16.2312 14.8802 -29.1842
LeftForeArm  17.4258 -39.4988 -8.12976
LeftHand  -0.0144685 9.87258 0.971436
RightShoulder  -1.0112 -6.3611 28.8311
RightArm  17.9557 -2.34398 43.2787
RightForeArm  12.9783 37.0123 7.67037
RightHand  -0.0198001 4.02424 -0.51227
LeftUpLeg  -11.0405 3.28744 -11.6338
LeftLeg  12.9026 44.331 3.77275
LeftFoot  -4.40468 -0.809401 13.7127
LeftToes  -2.53752e-010 -2.07034e-011 -2.70101e-011
547
root  63.0486 37.8524 -2.45192 -5.89679 -33.0461 3.64217
RightUpLeg  9.29366 -25.6542 -4.48801
RightLeg  37.2769 5.69438 4.44777
RightFoot  -9.60106 -0.343047 16.4279
RightToes  1.45519e-009 0 -3.6325e-017
Spine  6.74588 2.17068 1.72504
Spine1  6.58638 4.39171 -8.62076
HEad  -11.516 20.8072 -13.2022
LeftShoulder1  -1.15767 6.62829 -30.8664
LeftArm  -16.4119 16.4949 -30.265
LeftForeArm  13.992 -42.5759 -9.36201
LeftHand  0.00454419 10.3794 1.3658
RightShoulder  -0.918444 -6.16193 27.9869
RightArm  17.0249 -1.09845 43.9331
RightForeArm  12.8698 37.4053 7.79409
RightHand  -0.029991 3.8482 -0.640155
LeftUpLeg  -11.366 3.20599 -11.3326
LeftLeg  11.1728 47.69 2.42206
LeftFoot  -3.67746 -1.04313 15.7834
LeftToes  -2.53752e-010 -2.07034e-011 -2.70101e-011
